{
    "asset" : {
        "generator" : "Khronos glTF Blender I/O v1.5.17",
        "version" : "2.0"
    },
    "extensionsUsed" : [
        "KHR_materials_unlit"
    ],
    "scene" : 0,
    "scenes" : [
        {
            "name" : "Scene",
            "nodes" : [
                0
            ]
        }
    ],
    "nodes" : [
        {
            "mesh" : 0,
            "name" : "Window"
        }
    ],
    "materials" : [
        {
            "doubleSided" : true,
            "extensions" : {
                "KHR_materials_unlit" : {}
            },
            "name" : "Window_inside.001",
            "pbrMetallicRoughness" : {
                "baseColorTexture" : {
                    "index" : 0
                },
                "metallicFactor" : 0,
                "roughnessFactor" : 0.9
            }
        },
        {
            "doubleSided" : true,
            "name" : "Window_outside",
            "pbrMetallicRoughness" : {
                "baseColorFactor" : [
                    0,
                    0,
                    0,
                    1
                ],
                "roughnessFactor" : 0.20000000298023224
            }
        },
        {
            "doubleSided" : true,
            "name" : "Window_metal",
            "pbrMetallicRoughness" : {
                "baseColorFactor" : [
                    0.0200531966984272,
                    0.0200531966984272,
                    0.0200531966984272,
                    1
                ],
                "roughnessFactor" : 0.13636362552642822
            }
        },
        {
            "doubleSided" : true,
            "name" : "Window_stone",
            "pbrMetallicRoughness" : {
                "baseColorFactor" : [
                    0,
                    0,
                    0,
                    1
                ],
                "metallicFactor" : 0,
                "roughnessFactor" : 0.20000000298023224
            }
        }
    ],
    "meshes" : [
        {
            "name" : "Window",
            "primitives" : [
                {
                    "attributes" : {
                        "POSITION" : 0,
                        "NORMAL" : 1,
                        "TEXCOORD_0" : 2
                    },
                    "indices" : 3,
                    "material" : 0
                },
                {
                    "attributes" : {
                        "POSITION" : 4,
                        "NORMAL" : 5,
                        "TEXCOORD_0" : 6
                    },
                    "indices" : 7,
                    "material" : 1
                },
                {
                    "attributes" : {
                        "POSITION" : 8,
                        "NORMAL" : 9,
                        "TEXCOORD_0" : 10
                    },
                    "indices" : 11,
                    "material" : 2
                },
                {
                    "attributes" : {
                        "POSITION" : 12,
                        "NORMAL" : 13,
                        "TEXCOORD_0" : 14
                    },
                    "indices" : 15,
                    "material" : 3
                }
            ]
        }
    ],
    "textures" : [
        {
            "sampler" : 0,
            "source" : 0
        }
    ],
    "images" : [
        {
            "bufferView" : 4,
            "mimeType" : "image/png",
            "name" : "bakedwindow.png"
        }
    ],
    "accessors" : [
        {
            "bufferView" : 0,
            "componentType" : 5126,
            "count" : 24,
            "max" : [
                1.059999942779541,
                1.734727144241333,
                0.01927272602915764
            ],
            "min" : [
                -1.059999942779541,
                -0.6752727031707764,
                -0.01072726771235466
            ],
            "type" : "VEC3"
        },
        {
            "bufferView" : 1,
            "componentType" : 5126,
            "count" : 24,
            "type" : "VEC3"
        },
        {
            "bufferView" : 2,
            "componentType" : 5126,
            "count" : 24,
            "type" : "VEC2"
        },
        {
            "bufferView" : 3,
            "componentType" : 5123,
            "count" : 48,
            "type" : "SCALAR"
        },
        {
            "bufferView" : 5,
            "componentType" : 5126,
            "count" : 72,
            "max" : [
                1.100000023841858,
                1.734727144241333,
                0.01927272602915764
            ],
            "min" : [
                -1.100000023841858,
                -0.6752727031707764,
                -0.12072727829217911
            ],
            "type" : "VEC3"
        },
        {
            "bufferView" : 6,
            "componentType" : 5126,
            "count" : 72,
            "type" : "VEC3"
        },
        {
            "bufferView" : 7,
            "componentType" : 5126,
            "count" : 72,
            "type" : "VEC2"
        },
        {
            "bufferView" : 8,
            "componentType" : 5123,
            "count" : 132,
            "type" : "SCALAR"
        },
        {
            "bufferView" : 9,
            "componentType" : 5126,
            "count" : 6,
            "max" : [
                1.0399999618530273,
                -0.5972726941108704,
                0.06827272474765778
            ],
            "min" : [
                -1.0399999618530273,
                -0.6152727007865906,
                0.018272725865244865
            ],
            "type" : "VEC3"
        },
        {
            "bufferView" : 10,
            "componentType" : 5126,
            "count" : 6,
            "type" : "VEC3"
        },
        {
            "bufferView" : 11,
            "componentType" : 5126,
            "count" : 6,
            "type" : "VEC2"
        },
        {
            "bufferView" : 12,
            "componentType" : 5123,
            "count" : 12,
            "type" : "SCALAR"
        },
        {
            "bufferView" : 13,
            "componentType" : 5126,
            "count" : 28,
            "max" : [
                1.0399999618530273,
                -0.5972726941108704,
                0.15927273035049438
            ],
            "min" : [
                -1.0399999618530273,
                -0.6452726721763611,
                0.018272725865244865
            ],
            "type" : "VEC3"
        },
        {
            "bufferView" : 14,
            "componentType" : 5126,
            "count" : 28,
            "type" : "VEC3"
        },
        {
            "bufferView" : 15,
            "componentType" : 5126,
            "count" : 28,
            "type" : "VEC2"
        },
        {
            "bufferView" : 16,
            "componentType" : 5123,
            "count" : 48,
            "type" : "SCALAR"
        }
    ],
    "bufferViews" : [
        {
            "buffer" : 0,
            "byteLength" : 288,
            "byteOffset" : 0
        },
        {
            "buffer" : 0,
            "byteLength" : 288,
            "byteOffset" : 288
        },
        {
            "buffer" : 0,
            "byteLength" : 192,
            "byteOffset" : 576
        },
        {
            "buffer" : 0,
            "byteLength" : 96,
            "byteOffset" : 768
        },
        {
            "buffer" : 0,
            "byteLength" : 30282,
            "byteOffset" : 864
        },
        {
            "buffer" : 0,
            "byteLength" : 864,
            "byteOffset" : 31148
        },
        {
            "buffer" : 0,
            "byteLength" : 864,
            "byteOffset" : 32012
        },
        {
            "buffer" : 0,
            "byteLength" : 576,
            "byteOffset" : 32876
        },
        {
            "buffer" : 0,
            "byteLength" : 264,
            "byteOffset" : 33452
        },
        {
            "buffer" : 0,
            "byteLength" : 72,
            "byteOffset" : 33716
        },
        {
            "buffer" : 0,
            "byteLength" : 72,
            "byteOffset" : 33788
        },
        {
            "buffer" : 0,
            "byteLength" : 48,
            "byteOffset" : 33860
        },
        {
            "buffer" : 0,
            "byteLength" : 24,
            "byteOffset" : 33908
        },
        {
            "buffer" : 0,
            "byteLength" : 336,
            "byteOffset" : 33932
        },
        {
            "buffer" : 0,
            "byteLength" : 336,
            "byteOffset" : 34268
        },
        {
            "buffer" : 0,
            "byteLength" : 224,
            "byteOffset" : 34604
        },
        {
            "buffer" : 0,
            "byteLength" : 96,
            "byteOffset" : 34828
        }
    ],
    "samplers" : [
        {
            "magFilter" : 9729,
            "minFilter" : 9987
        }
    ],
    "buffers" : [
        {
            "byteLength" : 34924,
            "uri" : "data:application/octet-stream;base64,"
        }
    ]
}
